<?xml version="1.0" encoding="utf-8"?>
<!-- Generator: Adobe Illustrator 24.2.3, SVG Export Plug-In . SVG Version: 6.00 Build 0)  -->
<svg version="1.1" id="Layer_1" xmlns="http://www.w3.org/2000/svg" xmlns:xlink="http://www.w3.org/1999/xlink" x="0px" y="0px"
	 viewBox="0 0 595.3 155.3" style="enable-background:new 0 0 595.3 155.3;" xml:space="preserve">
<style type="text/css">
	.st0{fill:#334FFF;}
	.st1{fill:#2E20EE;}
</style>
<g id="Layer_2_2_">
	<g id="Layer_1-2_1_">
		<path class="st0" d="M582.8-1c-1.3,0.2-2.6,0.3-3.7,0.3c7.9-1,12.6-2,15.5,0.1C593.4-1.4,591-1.9,582.8-1z"/>
		<path class="st0" d="M595.3,0v155.3H0v-42.4C1.1,98.5,1.9,77.8,0,53c-1.6-20.6-3.6-25.5,0-29c13.7-13.4,60.2,42.5,135,52
			c54,6.9,61.3-18.2,107.3-5.7c24.6,6.7,39.3,18.4,51.8,29c15.2,12.8,27.2,24,49.9,22.9c18.8-1,28.2-14.3,40.4-26
			c8.9-8.5,19.2-16.1,35.6-17.3c9.2-0.7,16.8,0.7,23.3,2.3c10.7,2.5,18.4,5.3,25.7-0.3c9.1-7,6.2-18.4,6.6-31.3
			c0.3-7.6,1.7-15.7,7.4-23.7c18.1-24.9,62.8-26,66-26c3.5,0,6.5,0.2,10,0.4c3.7,0.2,8,0.2,14-0.4L595.3,0L595.3,0z"/>
	</g>
</g>
<g id="Layer_2_1_">
	<g id="Layer_1-2">
		<path class="st1" d="M595.3,0v155.3H0c16.3-10,29.2-18.4,38-24.3c23.7-15.8,30.4-21.7,46-28c14.1-5.7,26.1-7.9,32-9
			c0,0,18.9-3.5,38-2.8c46.3,1.5,61.5,30.4,95.9,30c20.7-0.2,32.7-10.9,44.3-21.8C306.4,87.9,318,76.1,339,76.1
			c18.8,0,33.2,10,45.5,20.2C399.7,109,411.7,122,425,117c12.4-4.7,14.3-20.5,18.3-35.8c3-11.5,7.3-22.7,18.3-28.3
			c4.5-2.3,9.1-3.2,13.9-3.2c25.3,0,53.6,25.9,69.1,13.5c15.7-12.6,7.1-53.4,14.4-62.8c0.1-0.1,0.2-0.3,0.3-0.4H595.3z"/>
	</g>
</g>
</svg>
