<?xml version="1.0" encoding="utf-8"?>
<!-- Generator: Adobe Illustrator 24.2.3, SVG Export Plug-In . SVG Version: 6.00 Build 0)  -->
<svg version="1.1" id="Layer_1" xmlns="http://www.w3.org/2000/svg" xmlns:xlink="http://www.w3.org/1999/xlink" x="0px" y="0px"
	 viewBox="0 0 594.5 519.7" style="enable-background:new 0 0 594.5 519.7;" xml:space="preserve">
<style type="text/css">
	.st0{fill:#2E20EE;}
</style>
<g id="Layer_2_1_">
	<g id="Layer_1-2">
		<path class="st0" d="M594.5,0v464.1l-0.5,0.4c-64.5,48.8-146.4,65.5-157,49c-15-23.3,114.4-108.8,92-166c-8.5-21.7-35.1-30-80-44
			c-57.4-17.9-85.7-12.6-149-21c-72.4-9.6-141.3-18.8-151-51c-13.3-44.4,98.3-99.2,84-133c-9.7-23.1-64.9-5.7-137-33.5
			C50.6,47.5,19,20,0,0.5C0.3,0.3,0.5,0.2,0.8,0H594.5z"/>
	</g>
</g>
</svg>
